<?xml version="1.0" encoding="iso-8859-1"?>
<!-- Generator: Adobe Illustrator 19.0.0, SVG Export Plug-In . SVG Version: 6.00 Build 0)  -->
<svg version="1.1" id="Capa_1" xmlns="http://www.w3.org/2000/svg" xmlns:xlink="http://www.w3.org/1999/xlink" x="0px" y="0px"
	 viewBox="0 0 512 512" style="enable-background:new 0 0 512 512;" xml:space="preserve">
<g>
	<g>
		<path d="M505.317,468.465c-6.894-4.595-16.206-2.733-20.801,4.161c-3.973,5.958-10.358,9.376-17.52,9.376
			c-6.3,0-11.997-2.646-15.982-7.339l29.493-61.143c2.242-4.648,1.937-10.123-0.808-14.493c-2.745-4.37-7.542-7.023-12.703-7.023
			H240.999v-32h194.998c9.017,0,16.003-7.913,14.884-16.861l-3.953-31.622C433.302,202.51,348.181,87.538,241,64.722V15.005
			c0-9.746-9.245-16.914-18.638-14.552l-119.999,30c-6.678,1.669-11.362,7.669-11.362,14.552s4.685,12.883,11.362,14.552L211,86.716
			v13.986L63.282,337.052c-2.891,4.624-3.043,10.453-0.4,15.222c2.644,4.77,7.667,7.729,13.12,7.729H211v32H45.002
			c-5.13,0-9.904,2.622-12.657,6.951c-2.753,4.329-3.103,9.765-0.927,14.411l17.151,36.62c-1.017-0.059-2.039-0.093-3.067-0.093
			c-17.423,0-33.49,8.499-42.98,22.735c-4.596,6.893-2.733,16.206,4.16,20.801c6.893,4.594,16.207,2.732,20.801-4.161
			c3.973-5.958,10.54-9.375,18.02-9.375s14.047,3.417,18.02,9.375C73.013,503.501,88.893,512,106.002,512
			c17.109,0,32.99-8.499,42.48-22.735c3.973-5.958,10.358-9.375,17.52-9.375s13.547,3.417,17.52,9.375
			c9.49,14.236,25.371,22.735,42.48,22.735s32.99-8.499,42.48-22.735c3.973-5.958,10.358-9.375,17.52-9.375
			s13.547,3.417,17.52,9.375C313.01,503.501,328.891,512,346,512s32.99-8.499,42.48-22.735c3.973-5.958,10.54-9.375,18.02-9.375
			c7.48,0,14.047,3.417,18.02,9.375c9.49,14.236,25.371,22.735,42.48,22.735c17.109,0,32.99-8.499,42.48-22.735
			C514.073,482.373,512.211,473.06,505.317,468.465z M417.161,315.241l1.845,14.761H260.075
			c25.78-37.268,40.925-93.108,40.925-134.999c0-25.413-6.308-50.144-18.749-73.508c-2.518-4.729-5.278-9.362-8.262-13.878
			C350.34,144.551,407.186,235.447,417.161,315.241z M241,113.267L241,113.267c19.133,23.985,30,52.902,30,81.736
			c0,22.995-5.753,52.111-15.388,77.888c-4.357,11.657-9.291,22.165-14.612,31.249V113.267z M210.999,55.793l-43.153-10.788
			l43.153-10.788V55.793z M103.064,330.002L211,157.306v172.696H103.064z M427.537,454.284c-6.505-2.849-13.647-4.394-21.04-4.394
			c-17.423,0-33.49,8.499-42.98,22.735c-3.973,5.958-10.358,9.376-17.52,9.376s-13.547-3.417-17.52-9.376
			c-9.49-14.236-25.371-22.735-42.48-22.735c-17.109,0-32.99,8.499-42.48,22.735c-3.973,5.958-10.358,9.376-17.52,9.376
			s-13.547-3.417-17.52-9.376c-9.49-14.236-25.371-22.735-42.48-22.735s-32.99,8.499-42.48,22.735
			c-3.973,5.958-10.358,9.376-17.52,9.376c-3.861,0-7.491-1.001-10.645-2.851L68.59,422.001h374.518L427.537,454.284z"/>
	</g>
</g>
<g>
</g>
<g>
</g>
<g>
</g>
<g>
</g>
<g>
</g>
<g>
</g>
<g>
</g>
<g>
</g>
<g>
</g>
<g>
</g>
<g>
</g>
<g>
</g>
<g>
</g>
<g>
</g>
<g>
</g>
</svg>
